<?xml version="1.0" encoding="utf-8"?>
<!-- Generator: Adobe Illustrator 16.0.0, SVG Export Plug-In . SVG Version: 6.00 Build 0)  -->
<!DOCTYPE svg PUBLIC "-//W3C//DTD SVG 1.1//EN" "http://www.w3.org/Graphics/SVG/1.1/DTD/svg11.dtd">
<svg version="1.1"
	 id="svg19" sodipodi:docname="giphy-ar21.svg" inkscape:version="0.92.3 (2405546, 2018-03-11)" xmlns:dc="http://purl.org/dc/elements/1.1/" xmlns:cc="http://creativecommons.org/ns#" xmlns:rdf="http://www.w3.org/1999/02/22-rdf-syntax-ns#" xmlns:svg="http://www.w3.org/2000/svg" xmlns:sodipodi="http://sodipodi.sourceforge.net/DTD/sodipodi-0.dtd" xmlns:inkscape="http://www.inkscape.org/namespaces/inkscape"
	 xmlns="http://www.w3.org/2000/svg" xmlns:xlink="http://www.w3.org/1999/xlink" x="0px" y="0px" width="102px" height="30.333px"
	 viewBox="10.167 12.833 102 30.333" enable-background="new 10.167 12.833 102 30.333" xml:space="preserve">
<sodipodi:namedview  inkscape:pageshadow="2" inkscape:window-width="1920" inkscape:window-x="-9" inkscape:pageopacity="0" inkscape:window-maximized="1" inkscape:window-y="-9" inkscape:current-layer="svg19" inkscape:window-height="1001" id="namedview21" objecttolerance="10" borderopacity="1" bordercolor="#666666" pagecolor="#ffffff" gridtolerance="10" guidetolerance="10" showgrid="false" inkscape:zoom="5.2149125" inkscape:cx="49.352459" inkscape:cy="5.9022378">
	</sodipodi:namedview>
<title  id="title6">giphy_icon</title>
<g id="g941" transform="matrix(0.28093205,0,0,0.28093205,66.155243,70.282799)">
	<g id="g921" transform="translate(0,-68)">
		<g id="g866" transform="translate(-220.74576,-139.38983)">
			<g id="Logo">
				<g id="_Group_">
					
						<rect id="_Path_" x="34.812" y="28.969" transform="matrix(1 -0.0026 0.0026 1 -0.1565 0.1011)" fill="#FFFFFF" stroke="#FFFFFF" stroke-miterlimit="10" width="8.028" height="62.68"/>
					
						<rect id="_Path_2" x="91.059" y="44.89" transform="matrix(1 -0.0026 0.0026 1 -0.1765 0.2468)" fill="#FFFFFF" stroke="#FFFFFF" stroke-miterlimit="10" width="8.042" height="46.61"/>
					
						<rect id="_Path_3" x="34.9" y="91.562" transform="matrix(1 -0.0025 0.0025 1 -0.2376 0.1671)" fill="#FFFFFF" stroke="#FFFFFF" stroke-miterlimit="10" width="64.269" height="8.044"/>
					
						<rect id="_Path_4" x="34.72" y="20.896" transform="matrix(1 -0.0026 0.0026 1 -0.0645 0.1424)" fill="#FFFFFF" stroke="#FFFFFF" stroke-miterlimit="10" width="40.167" height="8.04"/>
					<polygon id="_Path_5" fill="#FFFFFF" stroke="#FFFFFF" stroke-miterlimit="10" points="74.94,44.933 99.048,44.872 
						99.032,36.839 90.988,36.856 90.969,28.823 82.937,28.84 82.92,20.809 74.878,20.826 					"/>
					
						<rect id="_Path_6" x="91.021" y="44.883" transform="matrix(1 -0.0026 0.0026 1 -0.1265 0.2467)" fill="#FFFFFF" stroke="#FFFFFF" stroke-miterlimit="10" width="8.04" height="8.042"/>
				</g>
			</g>
		</g>
		<g id="g14" transform="matrix(0.46760132,0,0,0.46760132,-80.909761,-107.98626)">
			<path id="path4" inkscape:connector-curvature="0" fill="#FFFFFF" stroke="#FFFFFF" stroke-miterlimit="10" d="M71.58,55.002
				c0-3.301-0.598-4.501-4.2-4.401c-8.2,0.301-16.299,0.1-24.499,0.1c-8.601,0-17.199,0.1-25.699,0c-2.2,0-3.2,0.498-3.1,2.899
				c0.201,6.798,0.201,13.601,0.1,20.399c0,2.104,0.598,2.803,2.799,2.699c4.799-0.193,9.501-0.097,14.299,0
				c3.899,0,9.902-1.294,11.3,0.602c2,2.803,1,7.999,0.803,12.095c-0.1,1.308-1.301,3.107-2.602,3.806
				c-6.401,3.702-13.5,4.802-20.8,4.498C7.279,97.201-2.218,91.9-7.317,79.805c-3.301-8.006-4.104-16.307-2.401-24.804
				c2.401-11.802,8.099-20.8,20.399-23.9c12.4-3.1,24.101-1.301,34.401,6.698c2.899,2.301,4.301,1.702,6.401-0.699
				c3.598-4.1,7.497-7.899,11.3-11.802c4.498-4.598,4.498-4.498-0.401-8.798C48.081,3.7,30.983,0.299,12.58,2.298
				c-25.398,2.803-43.4,15.303-52.098,40.002c-4.2,11.798-4.802,23.9-2.301,36.1c3.999,18.801,13.199,33.602,31.598,41.296
				c16.399,6.899,33.401,8.207,50.7,3.806c10.3-2.602,20.001-6.2,27-14.801c2.702-3.301,4.1-6.906,4-11.203
				C71.48,83.299,71.379,69.201,71.58,55.002L71.58,55.002z"/>
			<path id="path6" inkscape:connector-curvature="0" fill="#FFFFFF" stroke="#FFFFFF" stroke-miterlimit="10" d="M369.178,64.001
				c0-18.299-0.097-36.501,0.104-54.8c0-2.702-0.401-3.799-3.501-3.702c-8.705,0.201-17.403,0.201-26.205,0
				c-2.691-0.097-3.39,0.803-3.39,3.401c0.097,12.4-0.208,24.8,0,37.2c0,3.2-1.004,3.702-3.91,3.702
				c-11.597-0.201-23.194-0.201-34.695,0c-2.996,0.1-3.501-1-3.397-3.702c0.097-12.5,0-25.101,0.097-37.598
				c0-2.201-0.401-3.1-2.803-3.003c-9.099,0.1-18.295,0.1-27.402,0c-2.2,0-3.093,0.401-3.093,2.903
				c0.097,37.099,0.097,74.095,0,111.198c0,2.297,0.595,2.996,2.899,2.996c9.099-0.097,18.302-0.193,27.402,0
				c2.795,0.104,2.996-1.1,2.996-3.293c-0.097-12.4,0-24.807-0.097-37.207c0-2.498,0.595-3.197,3.093-3.197
				c12.006,0.104,24.004,0.201,36.003,0c2.907,0,3.301,1.004,3.301,3.501c-0.097,12.303,0,24.503-0.097,36.806
				c0,2.594,0.498,3.494,3.301,3.39c8.594-0.193,17.202-0.193,25.692,0c3.107,0.104,3.806-0.795,3.806-3.791
				C369.082,100.502,369.178,82.199,369.178,64.001z"/>
			<path id="path8" inkscape:connector-curvature="0" fill="#FFFFFF" stroke="#FFFFFF" stroke-miterlimit="10" d="M210.076,5.699
				c-19.893-0.498-39.794-0.297-59.591-0.498c-3.204,0-4.208,0.799-4.208,4.1c0.208,18.198,0.104,36.501,0.104,54.699
				c0,18.399,0,36.798,0,55.205c0,2.394,0.401,3.39,3.1,3.293c9.3-0.201,18.503-0.201,27.796,0c2.602,0,3.204-0.795,3.204-3.197
				c-0.097-8.4,0-16.898-0.097-25.298c0-2.505,0.699-3.204,3.197-3.204c7.895,0.097,15.805,0.201,23.7-0.201
				c10.497-0.498,20.503-2.899,28.799-9.798c13.203-10.902,18.102-30.201,12.207-47.7C242.785,17.501,227.486,6.101,210.076,5.699z
				 M202.879,62.8c-6.698,0.1-13.299-0.1-19.997,0.1c-2.803,0.1-3.405-0.9-3.197-3.401c0.193-3.698,0-7.3,0-10.999
				c0-4.1,0.097-8.2,0-12.199c-0.104-2,0.595-2.602,2.498-2.502c7.099,0.1,14.095-0.201,21.202,0.1
				c8.594,0.301,13.991,6.401,13.894,14.901C216.982,57.5,211.785,62.7,202.879,62.8z"/>
			<path id="path10" inkscape:connector-curvature="0" fill="#FFFFFF" stroke="#FFFFFF" stroke-miterlimit="10" d="M502.887,5.499
				c-10.601,0-21.202-0.097-31.907,0.1c-1.502,0-3.494,1.201-4.401,2.502c-7.3,11.199-14.392,22.399-21.298,33.799
				c-2.104,3.501-2.899,2.803-4.698-0.201c-6.601-11.199-13.5-22.298-20.198-33.498c-1.204-2-2.498-2.702-4.802-2.702
				c-10.304,0.1-20.696,0-31.104,0.1c-1.1,0-2.297,0.301-3.397,0.502C381.578,7,381.98,8,382.582,8.9
				c13.798,21.499,27.699,43.002,41.4,64.602c1.1,1.695,1.695,4,1.799,5.999c0.201,13.195,0.104,26.398,0,39.601
				c0,2.498,0.401,3.598,3.301,3.494c8.995-0.193,17.998-0.193,27,0c2.699,0.104,3.1-0.892,3.1-3.293
				c-0.097-6.802-0.097-13.597-0.097-20.406c0-6.497-0.208-13.099,0.097-19.596c0.097-2.2,0.795-4.594,2-6.297
				c14.303-21.503,28.799-42.902,43.199-64.304c0.602-0.799,0.795-1.799,1.301-2.799C504.782,5.599,503.883,5.499,502.887,5.499
				L502.887,5.499z"/>
			<path id="path12" inkscape:connector-curvature="0" fill="#FFFFFF" stroke="#FFFFFF" stroke-miterlimit="10" d="M123.38,8.101
				c0-2.401-0.699-2.899-3.003-2.899c-8.794,0.1-17.693,0.201-26.495,0c-3.003-0.1-3.501,0.9-3.501,3.598
				c0.097,18.202,0.097,36.501,0.097,54.699c0,18.5,0,37.003,0,55.499c0,2.498,0.305,3.598,3.204,3.501
				c8.794-0.201,17.7-0.097,26.502,0c2.297,0,3.301-0.201,3.301-2.996C123.276,82.496,123.276,45.3,123.38,8.101z"/>
		</g>
	</g>
</g>
</svg>
